<svg width="235" height="181" xmlns="http://www.w3.org/2000/svg">
    <defs>
        <linearGradient x1="50.873%" y1="35.588%" x2="51.824%" y2="95.175%" id="a">
            <stop stop-color="#D8D8D8" offset="0%"/>
            <stop stop-color="#FFF" stop-opacity="0" offset="100%"/>
        </linearGradient>
    </defs>
    <g fill="none" fill-rule="evenodd">
        <g opacity=".115" fill-rule="nonzero">
            <path d="M118.8 34.162a111.813 111.813 0 0110.696 5.207l.06-.067a16.334 16.334 0 019.588-5.116c.195-.03.482-.065.86-.107a.113.113 0 01.123.085l.194.757.547 2.138.21.818a.114.114 0 01-.107.142l-.79.023a13.178 13.178 0 00-7.596 3.01l-.068.057a111.715 111.715 0 019.845 6.622c.441.332.729.828.797 1.375.56 4.522.841 8.87.841 13.394a112.063 112.063 0 01-.84 13.381 2.034 2.034 0 01-.795 1.378 109.123 109.123 0 01-1.948 1.438c-.258.186-.591.422-1.001.71a.527.527 0 01-.822-.511A99.704 99.704 0 00139.91 62.5c0-3.132-.14-6.114-.42-9.23l-.24-2.342a1.046 1.046 0 00-.43-.741l-1.913-1.378a106.416 106.416 0 00-7.954-5.065 106.477 106.477 0 00-8.37-4.336l-2.154-.964a1.056 1.056 0 00-.863 0l-2.166.969a106.287 106.287 0 00-16.317 9.399l-1.905 1.373a1.046 1.046 0 00-.42.674l-.01.068-.238 2.318a101.79 101.79 0 000 18.502l.239 2.325c.03.296.186.566.43.741l1.91 1.376a106.416 106.416 0 007.956 5.067 106.475 106.475 0 008.363 4.332l2.161.968c.274.123.588.123.863 0l2.175-.973a106.288 106.288 0 009.13-4.785c.27-.157.454-.425.504-.731.079-.474.139-.843.181-1.109.637-4.01 1.055-7.636 1.27-13.256.052-1.344.054-2.689.032-4.035l-.018-.868a.233.233 0 00-.24-.228c-.024 0-4.19 2.216-12.5 6.645a2.053 2.053 0 01-1.933 0l-12.396-6.617a.234.234 0 00-.317.095l-3.881-5.267a1.05 1.05 0 011.547-.863L118 63.112l16.013-8.548a1.054 1.054 0 011.547.863l.089 1.548c.168 2.948.212 5.893.133 8.837-.098 3.673-.412 7.597-1.162 12.704-.114.775-.298 1.923-.551 3.443l-.032.192a2.036 2.036 0 01-.97 1.414c-.924.55-1.612.954-2.065 1.215a110.244 110.244 0 01-12.205 6.059 2.053 2.053 0 01-1.597-.001 111.433 111.433 0 01-12.202-6.058 111.34 111.34 0 01-11.36-7.51 2.034 2.034 0 01-.797-1.376C92.281 71.372 92 67.024 92 62.5c0-4.523.28-8.872.841-13.394a2.034 2.034 0 01.795-1.374 110.06 110.06 0 019.8-6.595l-.103-.087a13.177 13.177 0 00-7.526-3.005c-.18-.012-.467-.022-.859-.029a.114.114 0 01-.108-.142l.18-.698.526-2.058.245-.955a.113.113 0 01.122-.085c.482.054.846.102 1.09.143a16.336 16.336 0 019.448 5.178 110.001 110.001 0 0110.752-5.238 2.053 2.053 0 011.597.001z" fill="#D8D8D8"/>
            <path d="M12.29 28c-.02 1.352-.01 2.702.028 4.052.059 2.026.282 4.296.54 6.952l.14 1.436c.027.283-.196.532-.499.558a.581.581 0 01-.35-.081 127.52 127.52 0 01-1.51-.934l-1.345-.87a1.973 1.973 0 01-.915-1.499 675.412 675.412 0 01-.136-1.776 85.03 85.03 0 01-.203-3.678 96.749 96.749 0 01.14-8.672l.092-1.519c.034-.566.554-1 1.161-.967.16.008.317.05.458.12l2.774 5.922a.254.254 0 00-.33.094c-.037.424-.042.678-.045.863z" fill="url(#a)" transform="translate(92 34)"/>
        </g>
        <text opacity=".202" font-family="PingFangSC-Regular, PingFang SC" font-size="16" letter-spacing="-.121" fill="#D8D8D8">
            <tspan x="46.252" y="130">欢迎使用 ASCP IDE</tspan>
        </text>
    </g>
</svg>
