<?xml version="1.0" encoding="UTF-8"?>
<svg width="64px" height="64px" viewBox="0 0 64 64" version="1.1" xmlns="http://www.w3.org/2000/svg" xmlns:xlink="http://www.w3.org/1999/xlink">
    <title>路径复制 2</title>
    <desc>Created with Sketch.</desc>
    <g id="Chrome插件" stroke="none" stroke-width="1" fill="none" fill-rule="evenodd">
        <g id="Chrome研发插件新" transform="translate(-387.000000, -536.000000)" fill="#56AAFF" fill-rule="nonzero">
                <path d="M93.5144023,58.500137 C91.220433,58.500137 89.2615827,59.9121318 88.4397433,61.9161246 L81.0471779,61.9161246 C79.9455047,61.9161246 79.0524221,62.8115518 79.0524221,63.9161172 L79.0604011,63.960117 L79.0524221,64.0001169 C79.0524221,70.6160928 73.6825393,76.0000731 67.0838868,76.0000731 C60.4852343,76.0000731 55.1153515,70.6160928 55.1153515,64.0001169 C55.1153515,57.3841411 60.4852343,52.0001608 67.0838868,52.0001608 C69.8326604,52.0001608 72.5096228,52.9561572 74.6400221,54.6961509 C75.4949571,55.3915352 76.7494059,55.264689 77.4486384,54.4121519 C78.1439551,53.5532924 78.0155168,52.2923656 77.1613935,51.5921622 C74.3125493,49.2714097 70.7545309,48.0032036 67.0838868,48.0001753 C63.2778926,48.0001753 59.8229754,49.4001702 57.0781913,51.6401621 L49.7135525,44.256189 C50.4915073,43.0201935 50.9582802,41.5681988 50.9582802,40.0002046 C50.9582802,36.7645185 49.0142536,33.8474388 46.0326968,32.6091954 C43.0511401,31.3709519 39.6192198,32.0553954 37.3372351,34.343371 C35.0552504,36.6313466 34.372599,40.0722767 35.6076002,43.0616608 C36.8426015,46.051045 39.752043,48.0001753 42.9792567,48.0001753 C44.3715964,48.0001753 45.6522296,47.6121767 46.7932299,46.9841791 L54.3054807,54.5161515 C52.2514584,57.2500088 51.1359043,60.5773896 51.1258397,64.0001169 C51.1258397,67.7761031 52.4902527,71.2040906 54.6765052,73.9400806 L47.331814,81.3080537 C46.0390475,80.456198 44.5262235,80.0015764 42.9792567,80.0000585 C38.5725637,80.0000585 35,83.5817674 35,88.0000293 C35,92.4182911 38.5725637,96 42.9792567,96 C47.3859497,96 50.9582802,92.4182911 50.9582802,88.0000293 C50.9582802,86.6520341 50.5952346,85.4000388 50.0007974,84.2840429 L57.5329956,76.7360704 C60.2751749,78.8415807 63.6299915,79.9880791 67.0838868,80.0000585 C75.2304698,80.0000585 81.8849754,73.832081 82.8504373,65.9161099 L88.3918692,65.9161099 C89.3115112,68.412317 91.8847539,69.8873473 94.4968017,69.4155701 C97.1088495,68.9437929 99.0069495,66.6611673 99,64.0001169 C99,60.964128 96.5424416,58.500137 93.5144023,58.500137" id="路径复制-2"></path>
            </g>
        </g>
    </g>
</svg>