<?xml version="1.0" encoding="UTF-8"?>
<svg width="64px" height="64px" viewBox="0 0 64 64" version="1.1" xmlns="http://www.w3.org/2000/svg" xmlns:xlink="http://www.w3.org/1999/xlink">
    <!-- Generator: Sketch 59 (86127) - https://sketch.com -->
    <title>路径复制 2备份</title>
    <desc>Created with Sketch.</desc>
    <g id="Chrome插件" stroke="none" stroke-width="1" fill="none" fill-rule="evenodd">
        <g id="Chrome研发插件新" transform="translate(-781.000000, -536.000000)" fill="#666666" fill-rule="nonzero">
            <circle id="椭圆形复制" fill="#323639" cx="64" cy="64" r="64"></circle>
            <g id="编组-15" transform="translate(352.000000, 504.000000)">
                <path d="M487.514402,58.500137 C485.220433,58.500137 483.261583,59.9121318 482.439743,61.9161246 L475.047178,61.9161246 C473.945505,61.9161246 473.052422,62.8115518 473.052422,63.9161172 L473.060401,63.960117 L473.052422,64.0001169 C473.052422,70.6160928 467.682539,76.0000731 461.083887,76.0000731 C454.485234,76.0000731 449.115352,70.6160928 449.115352,64.0001169 C449.115352,57.3841411 454.485234,52.0001608 461.083887,52.0001608 C463.83266,52.0001608 466.509623,52.9561572 468.640022,54.6961509 C469.494957,55.3915352 470.749406,55.264689 471.448638,54.4121519 C472.143955,53.5532924 472.015517,52.2923656 471.161394,51.5921622 C468.312549,49.2714097 464.754531,48.0032036 461.083887,48.0001753 C457.277893,48.0001753 453.822975,49.4001702 451.078191,51.6401621 L443.713553,44.256189 C444.491507,43.0201935 444.95828,41.5681988 444.95828,40.0002046 C444.95828,36.7645185 443.014254,33.8474388 440.032697,32.6091954 C437.05114,31.3709519 433.61922,32.0553954 431.337235,34.343371 C429.05525,36.6313466 428.372599,40.0722767 429.6076,43.0616608 C430.842601,46.051045 433.752043,48.0001753 436.979257,48.0001753 C438.371596,48.0001753 439.65223,47.6121767 440.79323,46.9841791 L448.305481,54.5161515 C446.251458,57.2500088 445.135904,60.5773896 445.12584,64.0001169 C445.12584,67.7761031 446.490253,71.2040906 448.676505,73.9400806 L441.331814,81.3080537 C440.039047,80.456198 438.526223,80.0015764 436.979257,80.0000585 C432.572564,80.0000585 429,83.5817674 429,88.0000293 C429,92.4182911 432.572564,96 436.979257,96 C441.38595,96 444.95828,92.4182911 444.95828,88.0000293 C444.95828,86.6520341 444.595235,85.4000388 444.000797,84.2840429 L451.532996,76.7360704 C454.275175,78.8415807 457.629992,79.9880791 461.083887,80.0000585 C469.23047,80.0000585 475.884975,73.832081 476.850437,65.9161099 L482.391869,65.9161099 C483.311511,68.412317 485.884754,69.8873473 488.496802,69.4155701 C491.108849,68.9437929 493.00695,66.6611673 493,64.0001169 C493,60.964128 490.542442,58.500137 487.514402,58.500137" id="路径复制-2备份"></path>
            </g>
        </g>
    </g>
</svg>